<?xml version="1.0" encoding="UTF-8" standalone="no"?>
<svg
   version="1.1"
   width="1139.2966"
   height="268.58472"
   id="svg39"
   xmlns="http://www.w3.org/2000/svg"
   xmlns:svg="http://www.w3.org/2000/svg">
  <defs
     id="defs39" />
  <path
     d="m 237.37087,2.7966894 c 4.87798,3.3839178 8.08184,7.7115096 9.92578,13.3359376 0.76668,6.661201 0.38437,13.104209 -3,18.999999 -3.93851,4.544426 -8.05346,8.646782 -14.26953,9.203125 -5.35282,0.09867 -9.21099,-0.01894 -13.73047,-3.203125 -2.70772,-2.752312 -5.26589,-5.531782 -7,-9 -16.83,0 -33.66,0 -51,0 -4.29,8.25 -8.58,16.5 -13,25 14.72583,0.0049 29.45107,-0.01515 44.17676,-0.08028 6.83797,-0.02945 13.67563,-0.04784 20.51367,-0.03984 6.60083,0.0077 13.20107,-0.0159 19.8018,-0.05844 2.51651,-0.01113 5.03308,-0.01183 7.54959,-0.0019 3.52913,0.01218 7.05619,-0.01293 10.58513,-0.04663 1.03722,0.01222 2.07444,0.02444 3.1431,0.03703 6.30307,-0.108247 9.8399,-1.203931 14.58681,-5.427 3.7042,-3.117721 8.19288,-2.714954 12.78767,-2.660326 5.72097,0.555662 9.93499,2.944926 13.73047,7.214843 4.28933,6.181689 4.96467,11.671353 4.125,19.0625 -1.31426,4.212733 -2.96017,7.160502 -6.41529,9.949952 -3.59684,4.244398 -4.2325,8.330006 -5.30346,13.702392 -0.22523,1.050551 -0.45045,2.101103 -0.6825,3.183483 -0.71721,3.36379 -1.40859,6.73226 -2.09875,10.10168 -0.46309,2.20024 -0.92792,4.40011 -1.39453,6.59961 -0.92244,4.3548 -1.83938,8.71071 -2.75293,13.06738 -1.30752,6.20593 -2.64497,12.40439 -4.02442,18.59473 -0.1942,0.89106 -0.38841,1.78212 -0.5885,2.70018 -2.58298,11.46465 -6.88235,20.16709 -16.73962,27.1006 -6.04875,3.71813 -11.45203,5.12198 -18.57213,5.1313 -1.10887,0.004 -2.21774,0.008 -3.36022,0.0121 -1.20689,-5.3e-4 -2.41378,-0.001 -3.65725,-0.002 -1.9626,0.005 -3.9252,0.0107 -5.88779,0.0162 -2.10458,0.005 -4.20915,0.008 -6.31373,0.0106 -4.39174,0.006 -8.78339,0.0225 -13.17508,0.0413 -1.50532,0.006 -3.01065,0.0127 -4.51597,0.019 -0.75368,0.003 -1.50736,0.006 -2.28388,0.01 -10.21981,0.042 -20.43959,0.0751 -30.65949,0.0874 -6.90041,0.008 -13.80062,0.0309 -20.70093,0.0694 -3.64879,0.0197 -7.29727,0.0322 -10.94611,0.0272 -4.06976,-0.006 -8.13876,0.0198 -12.20842,0.0475 -1.80731,-0.01 -1.80731,-0.01 -3.65113,-0.02 -6.29782,0.0706 -10.31636,0.23582 -15.06787,4.55004 -2.58644,3.4094 -2.36503,6.83864 -2,11 1.68613,3.70948 3.54152,5.87735 7,8 2.74127,0.44561 2.74127,0.44561 5.79355,0.37181 1.18322,0.007 2.36645,0.0135 3.58553,0.0205 1.29464,-0.008 2.58929,-0.0154 3.92317,-0.0234 1.38,0.002 2.76,0.006 4.14,0.0114 2.97003,0.008 5.93987,0.008 8.90991,-1.9e-4 4.69834,-0.0116 9.39644,5.8e-4 14.09477,0.0166 11.67065,0.0362 23.34129,0.0424 35.01199,0.0399 9.06861,-0.002 18.13703,0.005 27.20558,0.04 4.66834,0.0168 9.33618,0.015 14.00452,-8.2e-4 2.90772,-0.006 5.81522,0.005 8.7229,0.0203 1.98599,0.005 3.97201,-0.009 5.95795,-0.0239 10.95383,0.0882 10.95383,0.0882 15.65013,4.52782 1.61051,3.22103 1.60169,6.51689 1,10 -2.57621,3.29181 -5.12583,5.42163 -9,7 0.33,0.76312 0.66,1.52625 1,2.3125 2.1806,8.04097 1.79782,15.0027 -2.3125,22.32422 -4.33958,6.07742 -9.39143,10.49621 -16.6875,12.36328 -7.99462,0.7976 -15.36652,0.93466 -22,-4 -5.10804,-4.2765 -9.81158,-10.29479 -11,-17 -0.11598,-1.80987 -0.17493,-3.62397 -0.1875,-5.4375 -0.0142,-0.92684 -0.0284,-1.85367 -0.043,-2.8086 0.23047,-2.7539 0.23047,-2.7539 2.23047,-7.7539 -22.275,-0.495 -22.275,-0.495 -45,-1 0.99,2.475 0.99,2.475 2,5 1.04016,8.96727 0.42532,16.59811 -5,24 -4.61222,5.05198 -9.89664,8.64633 -16.8047,9.43359 -1.35656,0.0236 -2.71369,0.0243 -4.07031,0.004 -1.06335,-0.0125 -1.06335,-0.0125 -2.14819,-0.0251 -7.86362,-0.25431 -12.12545,-2.52908 -17.78931,-7.72485 -6.4117,-6.98261 -6.52899,-12.79424 -6.58594,-22.06641 0.42235,-3.83835 1.46806,-6.30675 3.39844,-9.62109 -0.78375,-0.0412 -1.5675,-0.0825 -2.375,-0.125 -8.602326,-2.07643 -14.516566,-6.82623 -19.218746,-14.23438 -4.29287,-8.06106 -5.99125,-16.60948 -3.64453,-25.53906 1.40953,-4.15618 2.58908,-7.38217 5.55078,-10.66406 2.72679,-3.9387 1.4271,-7.86479 0.6875,-12.4375 -0.88977,-4.16931 -1.96313,-8.28001 -3.0625,-12.39844 -0.46072,-1.76348 -0.46072,-1.76348 -0.93074,-3.56258 -0.82515,-3.15452 -1.65662,-6.30729 -2.49071,-9.45945 -0.86891,-3.291 -1.72898,-6.58431 -2.58905,-9.87763 -0.17094,-0.6545 -0.34189,-1.30899 -0.51802,-1.98333 -0.34396,-1.31699 -0.68789,-2.63398 -1.03179,-3.95099 -0.51279,-1.96251 -1.02651,-3.92477 -1.54044,-5.88698 -2.43624,-9.31107 -4.81668,-18.63417 -7.13057,-27.97634 -0.5156,-2.07936 -1.03465,-4.15783 -1.55481,-6.236054 -1.71475,-6.856911 -3.40833,-13.718267 -5.07182,-20.587814 -0.88229,-3.627646 -1.77918,-7.251592 -2.67876,-10.874985 -0.42868,-1.740914 -0.85107,-3.483393 -1.26666,-5.227478 -0.57542,-2.412313 -1.17258,-4.818277 -1.77475,-7.224029 -0.16431,-0.712791 -0.32862,-1.425583 -0.49791,-2.159973 -1.23672,-4.810367 -3.12139,-7.375995 -6.86147,-10.593934 -0.33,-0.329999 -0.66,-0.66 -1,-1 -3.11524,-0.110985 -6.21202,-0.161672 -9.32812,-0.175781 -1.93361,-0.0232 -3.8672,-0.04732 -5.80078,-0.07227 -3.05916,-0.03509 -6.11792,-0.06444 -9.17725,-0.07788 -2.94532,-0.01549 -5.88947,-0.05571 -8.83447,-0.09985 -0.91163,0.0019 -1.82326,0.0038 -2.76252,0.0058 C 9.1787341,26.631722 6.8866541,26.502006 3.2429341,24.221912 0.20891412,20.965244 -0.03681588,18.625656 0.00367412,14.171863 0.45919412,11.001455 2.0498041,9.3135607 4.2966441,7.1328009 c 2.34942,-1.1747106 3.82221,-1.1575048 6.4428699,-1.2087402 0.92212,-0.019291 1.84423,-0.038581 2.79428,-0.058457 4.25408,-0.058001 8.50799,-0.1071118 12.76236,-0.1378326 2.23258,-0.021476 4.46508,-0.055454 6.69727,-0.1025391 25.81231,-0.5392758 25.81231,-0.5392758 35.18945,8.281983 6.71729,7.963191 8.85107,19.367096 11.36377,29.225585 0.26813,1.022227 0.53625,2.044454 0.8125,3.097657 1.9375,7.50287 1.9375,7.50287 1.9375,10.902343 22.769996,-0.494999 22.769996,-0.494999 45.999996,-1 1.67063,-3.526874 3.34125,-7.05375 5.0625,-10.6875 6.47365,-13.544376 6.47365,-13.544376 9.81251,-20 0.49242,-0.952617 0.98484,-1.905234 1.49218,-2.886718 2.54811,-3.785588 5.31256,-5.985695 9.63282,-7.425781 1.7947,-0.08814 3.59254,-0.117638 5.3894,-0.113526 1.10091,7.6e-5 2.20183,1.51e-4 3.33611,2.29e-4 1.18757,0.0052 2.37514,0.01032 3.5987,0.01564 1.82481,0.0021 1.82481,0.0021 3.68648,0.0043 3.89229,0.0056 7.78453,0.01816 11.67681,0.03087 2.63606,0.005 5.27213,0.0096 7.9082,0.01367 6.46812,0.01104 12.9362,0.02778 19.4043,0.04883 0.2935,-0.947784 0.587,-1.895567 0.8894,-2.872071 1.95838,-5.5156722 6.67575,-8.7620405 11.6731,-11.56542961 5.88706,-1.3587399 10.28476,-0.7607609 15.51172,2.10137601 z"
     fill="#1a93ec"
     id="path2" />
  <path
     d="m 87.296646,76.132629 c 56.100004,0 112.200004,0 170.000004,0 1.98,3.465 1.98,3.465 4,7 1.81844,1.788582 1.81844,1.788582 3.75,2.9375 1.0725,0.680625 2.145,1.36125 3.25,2.0625 -3.36632,16.070811 -6.75277,32.138911 -10.30466,48.169891 -0.29487,1.33592 -0.587,2.67244 -0.87628,4.00958 -0.40591,1.87286 -0.82321,3.74324 -1.24094,5.6135 -0.23299,1.05727 -0.46599,2.11454 -0.70605,3.20386 -2.04411,7.03936 -5.30246,12.01685 -11.78207,15.62245 -5.24574,2.14134 -10.69815,1.80689 -16.27994,1.78477 -1.21219,0.007 -2.42438,0.0137 -3.6733,0.0208 -3.30785,0.0151 -6.61515,0.0168 -9.923,0.0111 -2.76607,-0.003 -5.53208,0.003 -8.29815,0.009 -6.52497,0.014 -13.04981,0.0125 -19.57479,10e-4 -6.72519,-0.0115 -13.44998,0.003 -20.17512,0.0294 -5.78364,0.0222 -11.56716,0.0288 -17.35083,0.0229 -3.45033,-0.003 -6.9004,-9.6e-4 -10.35069,0.0163 -3.8445,0.0183 -7.68852,0.004 -11.53303,-0.0129 -1.13987,0.01 -2.27974,0.0193 -3.45415,0.0293 -7.70738,-0.0723 -7.70738,-0.0723 -11.66427,-2.43071 -1.92358,-2.22872 -2.62307,-3.5613 -3.17601,-6.42842 -0.16436,-0.79918 -0.32872,-1.5984 -0.49805,-2.42184 -0.22333,-1.2375 -0.22333,-1.2375 -0.45117,-2.5 -0.16823,-0.84047 -0.33645,-1.68094 -0.50977,-2.54688 -0.4105,-2.06422 -0.79656,-4.13328 -1.17773,-6.20312 0.62978,-0.0146 1.25957,-0.0292 1.90844,-0.0442 2.88527,-0.075 5.76944,-0.17149 8.65406,-0.26831 0.99064,-0.0226 1.98129,-0.0451 3.00195,-0.0684 8.15727,-0.26235 8.15727,-0.26235 15.43555,-3.61914 2.51452,-3.66397 4.40926,-7.55429 6.3125,-11.5625 1.03496,-2.10685 2.07259,-4.21238 3.11328,-6.31641 0.44771,-0.934 0.89541,-1.86801 1.35669,-2.83032 1.21753,-2.29077 1.21753,-2.29077 3.21753,-4.29077 2.0224,-0.30107 2.0224,-0.30107 4.53808,-0.36987 0.94148,-0.0289 1.88296,-0.0578 2.85297,-0.0876 1.0208,-0.0179 2.04159,-0.0358 3.09332,-0.0543 1.04835,-0.0185 2.0967,-0.037 3.17682,-0.0561 2.22255,-0.0321 4.44521,-0.0577 6.66791,-0.0774 2.27377,-0.0281 4.54738,-0.0758 6.82031,-0.14356 3.27924,-0.0975 6.55446,-0.13548 9.83496,-0.1604 1.0127,-0.0402 2.0254,-0.0804 3.06879,-0.12175 2.91317,0.0176 5.18624,0.13064 7.94684,1.07097 2.05459,2.13704 3.38353,4.2025 4.76349,6.82048 2.32422,4.09676 5.8393,5.71378 10.23651,7.17952 5.7775,0.45314 9.79687,-0.81695 15,-3 0.99,-0.33 1.98,-0.66 3,-1 1.10169,-1.69769 1.10169,-1.69769 2,-4 0.53625,-1.05187 1.0725,-2.10375 1.625,-3.1875 2.17818,-5.27704 2.3219,-10.06083 0.46094,-15.46875 -2.48201,-5.444394 -4.71536,-8.658449 -10.08594,-11.343741 -6.60504,-2.20168 -12.90846,-1.586977 -19.11328,1.441406 -1.93846,1.394586 -1.93846,1.394586 -2.74614,3.214035 -1.18151,2.203963 -2.25115,3.692498 -4.14058,5.34456 -3.95884,1.02537 -7.83712,0.88303 -11.90625,0.79687 -1.15746,0.005 -2.31492,0.0104 -3.50745,0.0157 -3.6963,0.0119 -7.39023,-0.0226 -11.0863,-0.0626 -3.6956,-0.0188 -7.39067,-0.0275 -11.08631,-0.0197 -2.2983,0.003 -4.59669,-0.0111 -6.89477,-0.0431 -1.04459,-0.003 -2.08917,-0.006 -3.16541,-0.008 -0.91535,-0.01 -1.83071,-0.02 -2.7738,-0.0303 -3.15462,0.43 -5.00863,1.50308 -7.57971,3.35164 -1.73207,2.42023 -1.73207,2.42023 -3.07813,5.25391 -0.52078,1.019 -1.04156,2.038 -1.57812,3.08789 -0.52594,1.06283 -1.05188,2.12566 -1.59375,3.2207 -0.54141,1.0667 -1.08282,2.1334 -1.64063,3.23242 -1.38259,2.72889 -2.75053,5.46431 -4.10937,8.20508 -0.495,0.99 -0.495,0.99 -1,2 -8.25,0 -16.5,0 -25,0 -4.620004,-17.82 -9.240004,-35.640001 -14.000004,-54.000001 z"
     fill="#f7f8f8"
     id="path3" />
  <path
     d="m 742.8279,105.19513 c 10.52887,8.26317 16.63254,20.78058 18.46875,33.9375 1.36575,15.46748 -0.68917,30.13882 -10,43 -0.42797,0.63293 -0.85594,1.26586 -1.29688,1.91797 -5.34522,7.12171 -14.4496,12.43683 -23.23047,13.87109 -13.88421,1.18444 -24.31316,-0.15488 -35.47265,-8.78906 -0.66,-0.66 -1.32,-1.32 -2,-2 -0.33,14.52 -0.66,29.04 -1,44 -7.92,0 -15.84,0 -24,0 0,-43.56 0,-87.12 0,-132.000001 7.26,0 14.52,0 22,0 0.66,3.630001 1.32,7.260001 2,11.000001 0.92812,-1.05188 1.85625,-2.10375 2.8125,-3.1875 13.94981,-14.006634 36.3914,-12.320585 51.71875,-1.75 z"
     fill="#191b20"
     id="path4" />
  <path
     d="m 774.29665,63.132629 c 8.25,0 16.5,0 25,0 8.51438,10.608083 8.51438,10.608083 10.82422,15.601563 3.11129,6.397869 6.76987,12.294965 10.61328,18.273437 1.25966,2.012355 2.51615,4.026691 3.76953,6.042971 2.53559,4.06728 5.07455,8.13242 7.61719,12.19531 0.95531,1.52681 0.95531,1.52681 1.92993,3.08447 1.17727,1.88137 2.35481,3.76258 3.53271,5.64356 6.27365,10.03095 12.48545,20.09858 18.71314,30.15869 0.33,-30.03 0.66,-60.060001 1,-91.000001 8.25,0 16.5,0 25,0 0,43.890001 0,87.780001 0,133.000001 -28,0 -28,0 -33.8125,-5.01953 -1.72657,-3.25781 -1.72657,-3.25781 -3.1875,-6.79297 -0.60051,-1.20889 -1.21273,-2.41203 -1.83594,-3.60937 -1.23455,-2.39667 -2.40009,-4.79752 -3.54688,-7.24073 -2.1943,-4.52841 -4.84029,-8.65111 -7.61718,-12.8374 -0.95984,-1.50389 -1.91548,-3.01048 -2.86719,-4.51953 -0.49468,-0.78327 -0.98936,-1.56653 -1.49902,-2.37354 -3.93606,-6.28051 -7.80321,-12.60415 -11.67676,-18.92334 -5.27055,-8.59304 -10.61358,-17.13406 -15.95703,-25.68359 -0.33,28.71 -0.66,57.42 -1,87 -8.25,0 -16.5,0 -25,0 0,-43.89 0,-87.78 0,-133.000001 z"
     fill="#181a1f"
     id="path5" />
  <path
     d="m 601.35915,97.695129 c 0.922,-0.01015 1.844,-0.0203 2.79394,-0.03076 12.98724,0.164249 25.87917,5.203881 35.14356,14.468261 10.90768,12.79806 14.9472,26.40635 14,43 -1.85461,12.85654 -8.0766,24.96783 -18.50391,32.90625 -13.6938,9.19413 -29.02547,12.47898 -45.25391,9.375 -14.23425,-4.17269 -25.12398,-11.70234 -32.80468,-24.53906 -6.54913,-12.49317 -7.33333,-27.39875 -3.46875,-40.8711 4.75812,-13.24705 13.35008,-23.66624 26.03125,-29.87109 0.76054,-0.4125 1.52109,-0.825 2.30468,-1.25 6.43962,-2.962634 12.7851,-3.132898 19.75782,-3.187501 z"
     fill="#181a1f"
     id="path6" />
  <path
     d="m 422.29665,72.132629 c 2.8125,2.5 2.8125,2.5 5,5 1.26843,1.392188 1.26843,1.392188 2.5625,2.8125 5.58825,6.923816 6.79026,13.127684 8.4375,22.187501 -8.25,0 -16.5,0 -25,0 -1.65,-3.300001 -3.3,-6.600001 -5,-10.000001 -4.55938,-5.22987 -11.72428,-6.413413 -18.36328,-7.324219 -6.05971,-0.312134 -11.3949,1.303349 -16.63672,4.324219 -3.25673,3.33427 -4.24012,5.952088 -4.5,10.5 0.27783,4.607401 1.18982,7.114591 4.5,10.500001 8.34298,5.0627 17.0953,7.67103 26.5,10 13.41942,3.32317 26.53568,6.86208 34.5,19 5.14131,9.72759 5.25122,19.28441 2.375,29.75 -1.93436,5.6548 -4.26262,9.92602 -8.375,14.25 -0.6484,0.68836 -1.2968,1.37672 -1.96485,2.08594 -10.79679,10.50393 -24.75387,13.31248 -39.3584,13.28491 -13.2389,-0.34801 -25.28758,-3.98929 -35.42675,-12.74585 -0.7425,-0.86625 -1.485,-1.7325 -2.25,-2.625 -0.49114,-0.53883 -0.98227,-1.07766 -1.48828,-1.63281 -5.49358,-6.51595 -8.51172,-14.84244 -8.51172,-23.36719 7.92,0 15.84,0 24,0 1.32,2.64 2.64,5.28 4,8 5.25833,5.64308 12.18162,8.39603 19.80468,9.35156 7.68448,0.23946 15.50954,-0.9363 21.69532,-5.78906 3.40724,-3.49243 4.33655,-5.09151 4.875,-9.9375 -0.45323,-4.3812 -1.54583,-6.27467 -4.375,-9.625 -4.19578,-3.14229 -8.05125,-4.88901 -13.0625,-6.375 -1.01852,-0.30853 -1.01852,-0.30853 -2.05762,-0.62329 -4.0406,-1.21191 -8.1014,-2.33983 -12.17285,-3.44312 -27.85876,-7.58899 -27.85876,-7.58899 -35.70703,-19.55859 -1.37119,-2.94852 -2.29995,-5.8295 -3,-9 -0.27071,-1.19496 -0.27071,-1.19496 -0.54688,-2.41406 -1.78399,-10.181053 -0.32503,-19.226377 5.05469,-28.062503 3.98995,-5.548813 8.54187,-9.225549 14.49219,-12.523438 0.69867,-0.390586 1.39734,-0.781172 2.11718,-1.183593 17.51081,-8.755402 42.30073,-6.672344 57.88282,5.183593 z"
     fill="#181a1f"
     id="path7" />
  <path
     d="m 964.29665,102.13263 c 0.77988,0.4241 1.55976,0.8482 2.36328,1.28516 12.35901,7.45695 17.78186,18.22285 21.63672,31.71484 0,6.93 0,13.86 0,21 -22.11,0 -44.22,0 -67,0 2.16853,10.47826 2.16853,10.47826 8.61328,18.38672 6.17007,3.76546 13.41894,3.41099 20.38672,2.61328 4.73705,-1.33417 7.41331,-3.2597 10.47656,-7.125 2.89715,-2.95409 5.04692,-3.32341 9.14062,-3.46094 2.08675,0.0396 4.1731,0.11081 6.25782,0.21094 1.60488,0.0406 1.60488,0.0406 3.24218,0.082 2.6297,0.0704 5.2552,0.16888 7.88282,0.29297 -3.11816,10.42983 -8.05287,19.05436 -17.63282,24.78906 -12.93879,6.61885 -27.18139,8.63316 -41.30468,4.58594 -14.14173,-5.0317 -22.09934,-12.58326 -28.58203,-25.875 -5.62021,-13.28681 -5.89673,-31.23491 -0.73829,-44.81641 6.14556,-13.1118 13.741,-21.10308 27.25782,-26.683591 11.20148,-3.353226 27.83165,-2.777063 38,3.000001 z"
     fill="#18191e"
     id="path8" />
  <path
     d="m 450.29665,62.132629 c 7.59,0 15.18,0 23,0 1.15291,2.305834 1.15397,3.698669 1.20532,6.266114 0.0199,0.880762 0.0399,1.761524 0.0604,2.668975 0.0167,0.952124 0.0334,1.904248 0.0506,2.885224 0.0208,0.973796 0.0416,1.947592 0.063,2.950897 0.0655,3.117856 0.12438,6.235799 0.18312,9.35379 0.0432,2.110686 0.0868,4.221363 0.13086,6.332031 0.10721,5.180898 0.20898,10.36188 0.30665,15.54297 0.46905,-0.4121 0.93811,-0.82419 1.42138,-1.24878 0.62149,-0.54052 1.24298,-1.08104 1.8833,-1.63794 0.61344,-0.53585 1.22687,-1.07169 1.85889,-1.62378 8.68482,-7.04415 20.27329,-6.15994 30.83643,-5.489501 8.95956,1.424837 16.06896,7.163101 21.68359,14.078121 5.06685,7.3973 6.44665,14.89147 6.42993,23.75342 1.5e-4,0.65437 2.9e-4,1.30873 4.4e-4,1.98293 -6.9e-4,2.14261 -0.008,4.28512 -0.0163,6.42772 -0.002,1.49358 -0.003,2.98716 -0.004,4.48074 -0.004,3.91592 -0.0136,7.83181 -0.0247,11.74771 -0.0103,4.00197 -0.0148,8.00394 -0.0198,12.00592 -0.0107,7.84117 -0.0283,15.68229 -0.0488,23.52344 -7.92,0 -15.84,0 -24,0 -0.0146,-1.8718 -0.0292,-3.7436 -0.0442,-5.67212 -0.0518,-6.20274 -0.11709,-12.40523 -0.19153,-18.60773 -0.0446,-3.7585 -0.0839,-7.5169 -0.11072,-11.27557 -0.0261,-3.63121 -0.0666,-7.26202 -0.11675,-10.89297 -0.0166,-1.38134 -0.0282,-2.76274 -0.0344,-4.14416 0.14984,-11.37327 0.14984,-11.37327 -5.00238,-21.14964 -5.09262,-3.84598 -8.49057,-4.4515 -14.8125,-4.57031 -1.29551,-0.0374 -2.59102,-0.0748 -3.92578,-0.11328 -5.40574,0.61186 -8.38656,2.93602 -12.01172,6.86328 -3.12689,4.57866 -4.00138,8.30017 -4.06885,13.82153 -0.0199,1.24091 -0.0397,2.48182 -0.0602,3.76033 -0.0119,1.34381 -0.0235,2.68761 -0.035,4.03142 -0.0187,1.38292 -0.0383,2.76583 -0.0587,4.14873 -0.0512,3.62815 -0.0909,7.25634 -0.12814,10.88466 -0.0401,3.70706 -0.0912,7.41397 -0.1413,11.12091 -0.0966,7.26488 -0.18006,14.52981 -0.25781,21.79492 -7.92,0 -15.84,0 -24,0 0,-44.22 0,-88.44 0,-134.000001 z"
     fill="#191b20"
     id="path9" />
  <path
     d="m 1055.82,100.80841 c 8.7415,4.67403 14.0322,10.38788 17.7891,19.51172 0.6699,2.74028 0.7393,5.00948 0.6875,7.8125 -3.5614,0.23303 -7.1208,0.37462 -10.6875,0.5 -1.5111,0.10055 -1.5111,0.10055 -3.0527,0.20312 -2.9516,0.0779 -5.4021,0.0531 -8.2598,-0.70312 -1.893,-1.90524 -2.9291,-3.64508 -4.0598,-6.07227 -0.895,-2.18402 -0.895,-2.18402 -3.4402,-3.92773 -5.9774,-1.70784 -12.624,-2.18826 -18.6406,-0.34375 -3.0922,1.7412 -3.9023,3.46798 -5.0469,6.78125 -0.1549,3.64747 -0.1549,3.64747 2.2488,6.14038 3.378,2.78415 5.9215,3.6506 10.1457,4.73852 0.6843,0.18321 1.3685,0.36641 2.0735,0.55517 2.1734,0.57981 4.3518,1.13688 6.532,1.69093 22.669,5.85897 22.669,5.85897 28.0625,12.375 0.5543,0.6484 1.1086,1.2968 1.6797,1.96484 4.6841,6.79821 4.4064,15.15573 3.4453,23.09766 -2.3062,8.30252 -7.8039,14.05585 -15.1992,18.24609 -2.2364,1.0655 -4.46,1.9452 -6.8008,2.75391 -0.9591,0.33838 -0.9591,0.33838 -1.9375,0.68359 -13.2622,3.7559 -28.456,2.09065 -40.6484,-3.96875 -8.4565,-5.04295 -12.43534,-12.34461 -14.96878,-21.64844 -0.44531,-2.0664 -0.44531,-2.0664 -0.44531,-4.0664 7.25999,0 14.51999,0 21.99999,0 1.32,2.64 2.64,5.28 4,8 6.813,5.14187 14.714,5.0019 23,4 3.9812,-1.599 5.6025,-2.40367 8,-6 0.1548,-3.5026 0.1548,-3.5026 -1,-7 -6.1812,-5.54589 -14.7805,-6.38059 -22.6406,-8.17969 -9.8829,-2.38782 -20.9193,-5.43663 -27.2461,-13.98437 -4.36152,-7.19267 -5.53794,-14.83797 -3.57423,-23.10547 2.57663,-7.4044 6.93913,-13.36212 13.46093,-17.73047 13.3179,-6.375565 30.6014,-8.041467 44.5234,-2.32422 z"
     fill="#181a1f"
     id="path10" />
  <path
     d="m 1094.2966,73.132629 c 7.92,0 15.84,0 24,0 0,8.58 0,17.16 0,26 6.93,0 13.86,0 21,0 0,6.600001 0,13.200001 0,20.000001 -6.93,0 -13.86,0 -21,0 0.069,7.17197 0.1569,14.34336 0.2625,21.51489 0.033,2.43939 0.061,4.87885 0.084,7.31836 0.034,3.50774 0.086,7.01477 0.1418,10.52222 0.01,1.08975 0.013,2.17951 0.019,3.30229 0.04,7.1938 0.04,7.1938 3.4923,13.34224 3.3111,2.38806 6.7551,2.3853 10.75,2.625 2.0625,0.12375 4.125,0.2475 6.25,0.375 0,6.27 0,12.54 0,19 -10.9951,2.19904 -24.0418,2.82752 -34,-3 -6.6619,-4.97491 -9.6546,-10.85071 -11,-19 -0.084,-1.90128 -0.1178,-3.80513 -0.1135,-5.70825 10e-5,-1.12079 2e-4,-2.24157 3e-4,-3.39632 0.01,-1.19912 0.01,-2.39825 0.016,-3.63371 0,-1.23591 0,-2.47181 0,-3.74516 0,-3.27314 0.014,-6.54623 0.025,-9.81936 0.01,-3.34502 0.015,-6.69005 0.02,-10.03509 0.011,-6.55406 0.028,-13.10808 0.049,-19.66211 -4.95,0 -9.9,0 -15,0 0,-6.6 0,-13.2 0,-20.000001 4.95,0 9.9,0 15,0 0,-8.58 0,-17.16 0,-26 z"
     fill="#17181d"
     id="path11" />
  <path
     d="m 618.35915,123.07013 c 5.70718,5.00145 9.59601,14.0196 10.10547,21.54297 0.0768,10.64812 -1.28197,19.31722 -8.83985,27.28125 -6.15463,5.62359 -11.98832,6.77682 -20.22656,6.61328 -6.60067,-0.79807 -11.98401,-3.82372 -16.53906,-8.625 -6.73185,-8.98215 -6.64703,-19.95841 -5.5625,-30.75 1.54557,-7.31388 5.44165,-13.05793 11,-18 9.56535,-6.12183 21.02284,-3.78146 30.0625,1.9375 z"
     fill="#f7f7f8"
     id="path12" />
  <path
     d="m 721.81618,119.04279 c 6.80123,4.04433 10.78424,9.67524 13.48047,17.08984 2.58111,10.86219 1.40979,22.63506 -3.87501,32.5 -4.8495,5.7053 -10.15825,8.84461 -17.58203,9.82422 -7.11749,0.31706 -12.19699,-1.28731 -17.48828,-6.08984 -7.24835,-7.70327 -9.39133,-16.45214 -9.19922,-26.87891 0.53977,-8.79671 3.47577,-15.62921 9.73047,-21.96094 7.06672,-6.11611 15.95958,-7.72615 24.9336,-4.48437 z"
     fill="#f7f7f8"
     id="path13" />
  <path
     d="m 950.64825,116.71466 c 5.79471,2.44989 8.7603,6.99148 11.64843,12.41797 1,3 1,3 1,11 -13.86,0 -27.72,0 -42,0 0.94656,-9.4656 1.89869,-14.19879 8.5625,-20.375 6.54192,-4.36128 13.08749,-4.94917 20.78907,-3.04297 z"
     fill="#f6f6f6"
     id="path14" />
  <path
     d="m 857.29665,63.132629 c 8.25,0 16.5,0 25,0 0,43.890001 0,87.780001 0,133.000001 -8.91,0 -17.82,0 -27,0 0,-0.33 0,-0.66 0,-1 8.25,0 16.5,0 25,0 0,-42.9 0,-85.8 0,-130.000001 -6.93,0 -13.86,0 -21,0 0,30.03 0,60.060001 0,91.000001 -0.66,-0.33 -1.32,-0.66 -2,-1 0,-30.36 0,-60.720001 0,-92.000001 z"
     fill="#07080a"
     id="path15" />
  <path
     d="m 134.29665,232.13263 c 2.87472,1.24988 4.44101,2.25469 6.3125,4.75 1.01565,3.32397 1.10546,5.78686 0.6875,9.25 -1.89994,3.20614 -3.33474,5.39903 -6.9375,6.69922 -3.4959,0.61575 -5.57198,0.50789 -8.875,-0.88672 -3.59911,-2.98211 -5.04165,-4.4755 -5.5625,-9.25 0.39674,-3.76907 1.08091,-5.58868 3.375,-8.5625 3.71042,-2.47362 6.69862,-2.54607 11,-2 z"
     fill="#f7f9f9"
     id="path16" />
  <path
     d="m 664.29665,101.13263 c 0.66,0 1.32,0 2,0 0,42.24 0,84.48 0,128 6.6,0 13.2,0 20,0 0,-14.52 0,-29.04 0,-44 0.33,0 0.66,0 1,0 0.33,15.18 0.66,30.36 1,46 -7.92,0 -15.84,0 -24,0 0,-42.9 0,-85.8 0,-130 z"
     fill="#08090c"
     id="path17" />
  <path
     d="m 228.29665,232.13263 c 2.81003,1.79364 4.5094,3.01881 6,6 0.42071,3.05921 0.48514,5.94677 0,9 -2.892,3.65305 -5.11041,5.74233 -9.75,6.375 -4.52539,-0.52216 -6.01711,-2.21729 -9.25,-5.375 -1.60087,-3.20173 -1.49917,-6.52577 -1,-10 3.67241,-5.75344 7.28255,-6.96515 14,-6 z"
     fill="#f6f9f9"
     id="path18" />
  <path
     d="m 450.29665,76.132629 c 0.33,0 0.66,0 1,0 0,38.940001 0,77.880001 0,118.000001 6.93,0 13.86,0 21,0 -0.0105,-1.74128 -0.021,-3.48256 -0.0317,-5.27661 -0.0322,-5.75156 -0.0552,-11.50311 -0.0719,-17.25474 -0.0104,-3.4874 -0.0246,-6.97471 -0.0472,-10.46206 -0.0259,-4.00872 -0.0356,-8.01733 -0.0444,-12.02612 -0.0103,-1.2532 -0.0206,-2.50639 -0.0313,-3.79756 -1.5e-4,-1.16098 -3.1e-4,-2.32196 -4.6e-4,-3.51812 -0.004,-1.0237 -0.009,-2.0474 -0.0135,-3.10212 0.24051,-2.56267 0.24051,-2.56267 2.24051,-5.56267 0,20.79 0,41.58 0,63 -7.92,0 -15.84,0 -24,0 0,-39.6 0,-79.2 0,-120.000001 z"
     fill="#030406"
     id="path19" />
  <path
     d="m 227.79665,18.882629 c 2.5,0.25 2.5,0.25 4.5,2.25 0.36796,2.870123 0.37509,4.407747 -1.1875,6.875 -1.8125,1.125 -1.8125,1.125 -4.375,1 -2.4375,-0.875 -2.4375,-0.875 -4.4375,-3.875 0.45476,-3.751829 1.49457,-5.849457 5.5,-6.25 z"
     fill="#eef5f8"
     id="path20" />
  <path
     d="m 215.92165,105.38263 c 2.375,0.75 2.375,0.75 3.375,1.75 0.1875,2.9375 0.1875,2.9375 0,6 -0.66,0.66 -1.32,1.32 -2,2 -3.125,-0.375 -3.125,-0.375 -6,-1 -1.32841,-5.43441 -1.32841,-5.43441 0.125,-7.9375 1.875,-1.0625 1.875,-1.0625 4.5,-0.8125 z"
     fill="#f0f6f8"
     id="path21" />
  <path
     d="m 664.29665,99.132629 c 7.26,0 14.52,0 22,0 0,2.310001 0,4.620001 0,7.000001 -0.66,0 -1.32,0 -2,0 0,-1.32 0,-2.64 0,-4 -5.94,0.33 -11.88,0.66 -18,1 0,-0.66 0,-1.32 0,-2 -0.66,0 -1.32,0 -2,0 0,-0.66 0,-1.320001 0,-2.000001 z"
     fill="#28292c"
     id="path22" />
  <path
     d="m 275.79665,65.882629 c 2.5,0.25 2.5,0.25 4.5,2.25 0.25,2.5 0.25,2.5 0,5 -2,2 -2,2 -4.5,2.25 -2.5,-0.25 -2.5,-0.25 -4.5,-2.25 -0.25,-2.5 -0.25,-2.5 0,-5 2,-2 2,-2 4.5,-2.25 z"
     fill="#f7faf9"
     id="path23" />
  <path
     d="m 976.29665,166.63263 c 1.06089,0.0361 2.12179,0.0722 3.21484,0.10937 2.59888,0.0937 5.19006,0.2246 7.78516,0.39063 -0.66,1.32 -1.32,2.64 -2,4 0,-0.66 0,-1.32 0,-2 -3.37668,-0.006 -6.74914,0.0536 -10.125,0.125 -1.427,-0.004 -1.427,-0.004 -2.88282,-0.008 -4.94216,0.13728 -8.07568,0.34131 -11.67187,3.9375 -0.7657,0.97195 -1.53141,1.9439 -2.32031,2.94531 -0.66,-0.33 -1.32,-0.66 -2,-1 5.94413,-7.7536 10.43337,-9.12261 20,-8.5 z"
     fill="#2c2c2e"
     id="path24" />
  <path
     d="m 716.85915,97.007629 c 1.39412,-0.0039 1.39412,-0.0039 2.8164,-0.0078 2.36257,0.119713 4.3614,0.46288 6.6211,1.132812 -0.33,0.66 -0.66,1.32 -1,1.999999 -1.02481,-0.0116 -2.04961,-0.0232 -3.10547,-0.0352 -1.36068,-0.009 -2.72136,-0.0185 -4.08203,-0.0273 -0.67354,-0.008 -1.34707,-0.0168 -2.04102,-0.0254 -3.72583,-0.0182 -7.15029,0.1949 -10.77148,1.08789 0.33,-0.99 0.66,-1.979999 1,-2.999999 3.57984,-0.818621 6.89237,-1.135209 10.5625,-1.125 z m -13.5625,4.125001 c 2,1 2,1 2,1 z"
     fill="#212326"
     id="path25" />
  <path
     d="m 995.29665,167.13263 c 7.25995,0 14.51995,0 21.99995,0 0.33,1.32 0.66,2.64 1,4 -3.4593,-0.0806 -6.9168,-0.19349 -10.375,-0.3125 -0.9848,-0.0226 -1.9696,-0.0451 -2.9843,-0.0684 -0.941,-0.0354 -1.8821,-0.0709 -2.8516,-0.10742 -1.304,-0.0393 -1.304,-0.0393 -2.63427,-0.0794 -2.15478,-0.43237 -2.15478,-0.43237 -4.15478,-3.43237 z"
     fill="#47494d"
     id="path26" />
  <path
     d="m 651.29665,139.13263 c 2,2 2,2 2.26562,5.15234 -0.005,1.2491 -0.0103,2.49821 -0.0156,3.78516 0.005,1.24652 0.0103,2.49305 0.0156,3.77734 -0.26562,3.28516 -0.26562,3.28516 -2.26562,6.28516 -1.51715,-3.0343 -1.14364,-6.17602 -1.125,-9.5 -0.004,-0.68965 -0.008,-1.3793 -0.0117,-2.08984 0.01,-5.15683 0.01,-5.15683 1.13672,-7.41016 z"
     fill="#202123"
     id="path27" />
  <path
     d="m 490.29665,116.13263 c 1.79093,-0.0809 3.58289,-0.13913 5.375,-0.1875 1.4966,-0.0522 1.4966,-0.0522 3.02343,-0.10547 0.85852,0.0967 1.71704,0.19336 2.60157,0.29297 0.66,0.99 1.32,1.98 2,3 -4.29,0 -8.58,0 -13,0 0,-0.99 0,-1.98 0,-3 z"
     fill="#28292c"
     id="path28" />
  <path
     d="m 1123.2966,177.13263 c 5.28,0.33 10.56,0.66 16,1 -0.33,0.99 -0.66,1.98 -1,3 -5.8417,0.3505 -9.8531,0.16727 -15,-3 0,-0.33 0,-0.66 0,-1 z"
     fill="#212226"
     id="path29" />
  <path
     d="m 342.29665,94.132629 c 0.99,0 1.98,0 3,0 0,4.62 0,9.240001 0,14.000001 -0.99,-0.66 -1.98,-1.32 -3,-2 -0.29297,-2.82031 -0.29297,-2.82031 -0.1875,-6.125 0.0271,-1.095704 0.0541,-2.191407 0.082,-3.320313 0.0348,-0.843047 0.0696,-1.686094 0.10547,-2.554688 z"
     fill="#232429"
     id="path30" />
  <path
     d="m 1073.2966,123.13263 c 0.33,0 0.66,0 1,0 0,1.65 0,3.3 0,5 -7.26,0 -14.52,0 -22,0 0,-0.33 0,-0.66 0,-1 0.5651,-0.0146 1.1302,-0.0292 1.7124,-0.0442 2.5549,-0.0744 5.1085,-0.17106 7.6626,-0.26831 0.8895,-0.0226 1.779,-0.0451 2.6954,-0.0684 0.8507,-0.0354 1.7015,-0.0709 2.5781,-0.10742 1.1783,-0.0393 1.1783,-0.0393 2.3804,-0.0794 2.3715,-0.28127 2.3715,-0.28127 3.9711,-3.43237 z"
     fill="#2d2e31"
     id="path31" />
  <path
     d="m 1021.2966,121.13263 c 0.99,0.33 1.98,0.66 3,1 -0.33,2.97 -0.66,5.94 -1,9 -0.99,-0.99 -1.98,-1.98 -3,-3 0.3125,-3.6875 0.3125,-3.6875 1,-7 z"
     fill="#dddddf"
     id="path32" />
  <path
     d="m 76.296646,119.13263 c 0.66,0 1.32,0 2,0 2.276786,8.03571 2.276786,8.03571 1,12 -2.49506,-2.49506 -2.359484,-3.67329 -2.625,-7.125 -0.07477,-0.91008 -0.149531,-1.82016 -0.226562,-2.75781 -0.04898,-0.69868 -0.09797,-1.39735 -0.148438,-2.11719 z"
     fill="#edf6f7"
     id="path33" />
  <path
     d="m 249.29665,245.13263 c 0.33,0 0.66,0 1,0 0.74737,5.97897 -1.67681,9.3238 -5,14 0,-3.38602 0.915,-5.81281 2,-9 0,-0.66 0,-1.32 0,-2 0.66,0 1.32,0 2,0 0,-0.99 0,-1.98 0,-3 z"
     fill="#0e84ec"
     id="path34" />
  <path
     d="m 579.29665,133.13263 c 0.66,0.33 1.32,0.66 2,1 -0.21657,1.05187 -0.21657,1.05187 -0.4375,2.125 -0.57729,2.95056 -1.07946,5.9077 -1.5625,8.875 -0.66,0 -1.32,0 -2,0 0.14168,-1.43792 0.28851,-2.87532 0.4375,-4.3125 0.0812,-0.80051 0.16242,-1.60102 0.24609,-2.42578 0.31641,-2.26172 0.31641,-2.26172 1.31641,-5.26172 z"
     fill="#eaeaeb"
     id="path35" />
  <path
     d="m 280.29665,119.13263 c 0.66,0.33 1.32,0.66 2,1 0.25,2.3125 0.25,2.3125 0,5 -2,1.8125 -2,1.8125 -4,3 0.875,-7.875 0.875,-7.875 2,-9 z"
     fill="#ebf4f9"
     id="path36" />
  <path
     d="m 260.29665,176.13263 c 0.66,0.66 1.32,1.32 2,2 -1.98,0.66 -3.96,1.32 -6,2 1.32,-1.32 2.64,-2.64 4,-4 z m -6,4 c 0.66,0.33 1.32,0.66 2,1 -0.80438,0.28875 -1.60875,0.5775 -2.4375,0.875 -2.69515,0.85763 -2.69515,0.85763 -3.5625,3.125 0,-0.99 0,-1.98 0,-3 1.875,-1.0625 1.875,-1.0625 4,-2 z"
     fill="#eff6f8"
     id="path37" />
  <path
     d="m 986.29665,131.13263 c 1.61949,2.57213 2.04408,3.67669 1.625,6.75 -0.20625,0.7425 -0.4125,1.485 -0.625,2.25 -0.66,-0.33 -1.32,-0.66 -2,-1 0.33,-2.64 0.66,-5.28 1,-8 z"
     fill="#26272a"
     id="path38" />
  <path
     d="m 382.29665,86.132629 c -5.17579,3.222657 -5.17579,3.222657 -7,4 -0.99,-0.33 -1.98,-0.66 -3,-1 6.625,-4.125 6.625,-4.125 10,-3 z"
     fill="#eaebeb"
     id="path39" />
</svg>
